PathFileType	4	(X/Y/Z)	C:/Users/opensim2020/Desktop/walking_exp_matlab/subject01_walking14_straight_02.trc																																																																																																																												
DataRate	CameraRate	NumFrames	NumMarkers	Units	OrigDataRate	OrigDataStartFrame	OrigNumFrames																																																																																																																								
100	100	8	42	mm	100	1225	125																																																																																																																								
Frame#	Time	LFHD			RFHD			LBHD			RBHD			C7			T10			CLAV			STRN			RBAK			LSHO			LUPA			LELB			LFRM			LWRA			LWRB			LFIN			RSHO			RUPA			RELB			RFRM			RWRA			RWRB			RFIN			LASI			RASI			LPSI			RPSI			LTHI			LKNE			LTIB			LANK			LHEE			LTOE			RTHI			RKNE			RTIB			RANK			RHEE			RTOE			*39			*40			*41		
		X1	Y1	Z1	X2	Y2	Z2	X3	Y3	Z3	X4	Y4	Z4	X5	Y5	Z5	X6	Y6	Z6	X7	Y7	Z7	X8	Y8	Z8	X9	Y9	Z9	X10	Y10	Z10	X11	Y11	Z11	X12	Y12	Z12	X13	Y13	Z13	X14	Y14	Z14	X15	Y15	Z15	X16	Y16	Z16	X17	Y17	Z17	X18	Y18	Z18	X19	Y19	Z19	X20	Y20	Z20	X21	Y21	Z21	X22	Y22	Z22	X23	Y23	Z23	X24	Y24	Z24	X25	Y25	Z25	X26	Y26	Z26	X27	Y27	Z27	X28	Y28	Z28	X29	Y29	Z29	X30	Y30	Z30	X31	Y31	Z31	X32	Y32	Z32	X33	Y33	Z33	X34	Y34	Z34	X35	Y35	Z35	X36	Y36	Z36	X37	Y37	Z37	X38	Y38	Z38	X39	Y39	Z39	X40	Y40	Z40	X41	Y41	Z41	X42	Y42	Z42
																																																																																																																															
79	0.78	51.64006	1666.18018	1066.77759	112.81107	1665.84888	1162.93103	-53.15189	1631.72742	1126.70667	9.45149	1630.67029	1228.30701	-94.94697	1435.85059	1147.54468	-137.90019	1140.75879	1140.55151	48.7039	1363.53882	1129.79407	87.05165	1210.80701	1119.64465	-149.75299	1241.10718	1219.17981	-28.40943	1401.49194	977.42786	-75.0566	1225.98914	886.21179	-91.78938	1072.72815	875.27234	-18.25044	980.04559	853.65601	98.38397	906.41925	871.43823	49.59438	878.19751	851.98291	119.79251	833.28851	840.46442	-3.76124	1395.45239	1285.5946	-64.65979	1200.43689	1388.9895	-65.05594	1074.58496	1394.54834	-37.37069	957.23663	1424.57056	40.18339	838.5119	1402.16016	-0.83198	840.47766	1442.37805	37.34015	764.79028	1446.6344	36.7201	934.95966	1023.21301	48.08298	941.18799	1239.57776	-144.5592	942.62524	1082.06042	-137.81816	953.0921	1227.00757	56.6668	602.57849	956.35822	66.29677	471.21298	963.22784	-76.37346	359.99243	969.16919	-234.4017	211.82199	1028.36108	-276.79248	218.37212	1089.72131	-172.26472	79.76512	1012.18018	9.63079	605.26843	1294.89429	25.01539	446.26593	1268.40662	-40.50875	280.35068	1274.45288	-84.66671	80.13391	1220.99719	-137.74672	46.97021	1171.8501	53.5875	34.77877	1215.52417	96.14249	1701.01404	1147.63232	-1973.16467	1023.4375	3102.03174	-2012.54224	1022.09833	3140.65161
80	0.79	64.96075	1666.85828	1066.13086	126.3595	1666.58813	1161.95898	-39.65298	1632.97412	1126.56238	23.07641	1631.927	1227.77441	-81.99734	1437.03748	1148.02161	-125.33561	1141.99377	1141.33154	61.53511	1364.5509	1129.81726	99.51909	1211.68933	1119.97876	-136.61087	1242.61438	1220.35498	-15.9474	1402.35706	977.62549	-63.90732	1226.87854	886.96155	-82.30233	1073.70154	877.19171	-12.58192	978.46375	854.84705	101.19503	900.03058	871.31982	51.02751	873.82251	852.79822	118.87178	825.84198	840.38763	9.5728	1397.17566	1285.59729	-49.78445	1202.28772	1389.88281	-48.7338	1076.15808	1396.14453	-16.92636	959.41626	1425.57581	64.9609	843.87231	1402.66846	24.02575	844.09973	1442.76001	65.08466	770.05017	1446.94116	49.35723	936.41345	1024.37378	59.78953	941.88391	1240.83875	-132.20621	944.09686	1081.63147	-126.10377	954.61517	1226.50671	75.24651	605.62329	956.50812	87.31364	474.38016	964.16718	-51.93717	358.7287	971.64581	-202.45131	203.01445	1031.03015	-246.36731	207.08249	1092.06909	-132.00122	75.92378	1014.15601	15.5484	605.77124	1294.86633	27.8381	446.478	1268.67859	-39.26603	281.30594	1274.42285	-84.19629	81.13082	1220.87439	-137.05612	48.39219	1171.48389	53.78752	34.79608	1215.68469	109.69154	1701.69678	1146.66052	-1973.1792	1023.49084	3101.97559	-2012.52759	1022.12604	3140.68604
81	0.8	78.2953	1667.28796	1065.37561	139.89859	1667.25439	1161.07642	-26.34901	1633.93884	1126.07251	36.68696	1633.05859	1227.23267	-69.13728	1438.07141	1148.28552	-112.77393	1143.11011	1142.05432	74.30163	1365.3562	1129.85205	112.03157	1212.37341	1120.2594	-123.50674	1243.98438	1221.42175	-3.4127	1403.00684	977.77307	-52.68046	1227.60266	887.6452	-72.98686	1074.84656	879.00482	-7.06972	976.91223	856.02594	103.70174	893.7699	871.21631	52.24659	869.75482	853.42096	117.52825	818.71661	840.25824	22.88236	1398.81104	1285.5542	-35.03793	1204.12195	1390.97241	-32.68391	1077.6554	1397.6062	3.25557	961.66559	1426.53967	89.51253	849.51947	1403.12134	48.5006	847.87744	1443.15271	92.64066	775.77362	1447.18066	61.81479	937.65631	1025.32458	71.39885	942.37872	1241.79541	-119.92368	945.40948	1081.37183	-114.31743	955.89691	1225.98608	93.41646	608.62988	956.67645	107.87057	477.50742	965.36707	-27.01099	356.39612	973.74164	-170.23073	193.60669	1033.22229	-214.54417	194.8786	1094.50867	-91.27077	72.1622	1015.74548	21.98813	606.31769	1295.10376	30.92127	446.99493	1269.17395	-37.89489	282.34186	1274.41772	-83.76524	82.28927	1220.66394	-136.79492	50.02585	1170.91382	53.9765	34.65379	1215.84839	123.55092	1702.45093	1145.62512	-1973.20789	1023.37231	3101.87744	-2012.51624	1022.09485	3140.6709
82	0.81	91.50765	1667.69958	1064.45764	153.35907	1667.75293	1159.86768	-13.08987	1634.81323	1125.45752	50.26969	1634.05872	1226.50659	-56.13949	1438.82898	1148.36633	-100.21378	1144.05933	1142.71875	87.05703	1365.92493	1129.68982	124.58899	1212.98315	1120.4054	-110.35054	1245.17383	1222.33911	9.29497	1403.5155	977.82965	-41.42701	1228.15051	888.27875	-63.89922	1075.50232	881.06549	-1.6595	975.42401	857.13617	105.93314	887.77625	870.94696	53.06323	866.02515	854.48657	115.83438	812.03619	840.17334	36.14111	1400.29773	1285.42358	-20.59809	1205.77527	1391.48511	-16.85618	1079.08936	1398.99377	23.19669	964.01904	1427.44873	113.78503	855.56476	1403.33484	72.84888	851.99677	1443.36914	119.93107	781.8324	1447.16235	74.24604	938.75964	1025.9939	82.87302	942.63947	1242.5304	-107.73138	946.4115	1081.04187	-102.73422	956.98102	1225.63892	111.24429	611.54254	956.97461	127.86874	480.49774	966.72711	-1.83902	352.98596	975.39844	-136.81934	183.34859	1035.20557	-181.50821	181.84422	1096.98645	-50.47537	68.21436	1016.96503	28.51395	606.86914	1295.04004	34.26672	447.04391	1269.17639	-36.20217	283.50113	1274.40649	-83.44968	83.52473	1220.61731	-136.2619	51.54185	1170.57178	54.0983	34.62093	1215.9137	136.95555	1702.97607	1144.33984	-1973.18286	1023.44006	3101.94507	-2012.50317	1022.15717	3140.71118
83	0.82	104.54948	1667.99988	1063.36353	166.76828	1668.19214	1158.64868	0.28643	1635.47083	1125.08179	63.84266	1634.96375	1225.67114	-43.0721	1439.51648	1148.24695	-87.64399	1144.83057	1143.2312	99.90228	1366.54163	1129.56836	137.23062	1213.37598	1120.5979	-97.28462	1246.18298	1223.13501	21.97364	1403.77222	977.76538	-30.16026	1228.40808	888.914	-54.48827	1076.37708	882.76135	3.5324	973.92963	858.17194	107.91341	881.88245	870.85999	53.87958	862.56659	855.54675	113.89999	805.66327	840.02472	49.37534	1401.76721	1285.39136	-6.41343	1207.42261	1392.15271	-1.22772	1080.46582	1400.31689	42.99284	966.42957	1428.23596	137.81293	861.91943	1403.5116	96.87566	856.30389	1443.49316	146.86705	788.29633	1446.96216	86.65528	939.61298	1026.53528	94.98792	942.88702	1243.14514	-95.58318	947.26666	1080.80066	-91.08405	957.74933	1225.3053	128.56046	614.302	957.4278	147.36972	483.29944	968.34436	23.62273	348.6376	976.64825	-102.93161	172.91383	1037.27234	-147.38188	168.15701	1099.2218	-9.49848	63.90739	1017.36847	35.11135	607.23383	1294.94031	37.7659	447.49323	1269.36633	-34.2045	284.72821	1274.3573	-82.79065	84.89608	1220.68945	-135.73077	53.30695	1170.37	54.30498	34.72889	1216.00305	150.36153	1703.39636	1143.10168	-1973.18982	1023.388	3102.03857	-2012.5354	1022.10156	3140.66895
84	0.83	117.79514	1668.05859	1062.35742	180.25606	1668.63977	1157.44849	13.35512	1635.80078	1124.04541	77.36031	1635.6543	1224.79993	-30.12123	1440.29626	1148.80273	-75.07579	1145.52136	1143.67017	112.81628	1366.87659	1129.40784	149.81223	1213.54309	1120.7157	-84.14809	1247.05579	1223.79224	34.7434	1403.83582	977.578	-18.8224	1228.41443	889.52838	-45.23207	1076.78113	884.27649	8.82548	972.61713	859.05884	109.77463	876.32892	870.70526	54.69875	859.2608	856.25287	111.98587	799.73676	840.11841	62.69016	1402.9082	1285.10522	7.63943	1208.85156	1392.64587	14.25729	1081.7301	1401.58374	62.53868	968.84631	1429.16052	161.5291	868.4303	1403.55188	120.82913	860.92352	1443.03259	173.50041	795.03632	1446.54272	99.53646	940.52258	1026.59351	106.26907	942.63544	1243.61841	-83.41825	947.94299	1080.55249	-79.5113	958.24054	1224.94836	145.5085	616.80786	957.97858	166.48061	485.78308	970.08093	49.31825	343.54483	977.71735	-68.09647	161.97548	1039.20203	-111.77509	153.86453	1101.4668	32.55053	60.74442	1017.45605	41.72631	607.73749	1295.09949	41.65367	447.78513	1269.34692	-31.95299	285.92776	1274.18481	-82.04298	86.08447	1220.55737	-134.88829	55.27573	1170.46619	54.49554	34.59702	1216.0885	163.7433	1703.73657	1141.70837	-1973.09241	1023.49304	3101.93457	-2012.53186	1021.93268	3140.70605
85	0.84	130.78973	1668.16895	1061.1156	193.45192	1668.80371	1155.98682	26.56461	1636.08398	1123.12866	90.83239	1636.21118	1223.7948	-16.92561	1440.74438	1148.74841	-62.47142	1146.09717	1144.00281	125.71706	1367.04968	1129.06006	162.38042	1213.52966	1120.75879	-71.09438	1247.80627	1224.30066	47.55743	1403.7334	977.32813	-7.48817	1228.26367	890.06152	-35.79697	1077.35437	885.63776	14.1469	971.41101	859.97382	111.43229	871.0296	870.69916	55.61159	856.28833	856.84338	110.07259	794.34949	840.15167	75.97417	1403.8363	1284.70056	21.58379	1210.17944	1393.04907	29.61731	1082.86853	1402.76953	82.05657	971.28033	1429.58777	184.81329	875.17572	1403.37036	144.44632	865.66089	1442.70959	199.72459	802.03302	1445.86267	111.80967	940.94049	1026.80371	117.80589	942.31219	1244.02136	-71.25684	948.46082	1080.27344	-67.92749	958.47607	1224.54724	162.06354	619.12469	958.61554	185.04456	487.89624	971.98785	75.15491	338.1174	978.70337	-32.25947	150.83403	1040.91992	-74.56587	138.89842	1103.64111	74.63531	57.66412	1016.84045	48.21589	607.97467	1294.69238	45.40993	448.2666	1269.15771	-29.68732	287.18759	1273.90515	-81.30533	87.45319	1220.4353	-134.43764	57.3797	1170.33203	54.35172	34.46511	1216.12146	177.07648	1703.95032	1140.23206	-1973.07544	1023.42059	3101.9895	-2012.56812	1022.07794	3140.61426
86	0.85	143.77965	1668.07483	1059.80859	206.78755	1668.96326	1154.41418	39.6608	1636.22949	1122.32874	104.30557	1636.56262	1222.67505	-3.8758	1440.83948	1147.69556	-49.78513	1146.50134	1144.18201	138.68016	1367.06348	1128.65039	175.01413	1213.36646	1120.70618	-58.06554	1248.41833	1224.68762	60.4657	1403.45056	976.86169	3.79556	1227.99915	890.45923	-26.23683	1077.71179	887.02051	19.65827	970.17548	860.88031	113.15611	865.98328	870.73224	56.54957	853.52679	857.36469	108.3986	789.39117	840.31677	89.32301	1404.59021	1284.18811	35.50368	1211.32483	1393.34229	44.87524	1083.86084	1403.82117	101.29416	973.76678	1430.02856	207.78606	882.1026	1403.13489	167.75725	870.60236	1442.23438	225.53477	809.18896	1445.03577	124.29566	941.21796	1026.80432	129.2894	941.81671	1244.30823	-59.03115	948.73657	1079.84631	-56.54797	958.5683	1224.07568	178.3546	621.07916	959.25464	203.19452	489.64862	973.88794	100.99892	332.56918	979.72076	4.3404	140.01843	1042.4021	-36.48147	124.34009	1105.40405	117.29311	54.97871	1015.97418	54.83138	608.05017	1294.49585	49.66731	448.53067	1269.18042	-27.06528	288.22772	1273.59546	-80.80281	89.15148	1220.27246	-134.10248	59.3844	1170.13403	54.54889	34.42952	1216.14319	190.43423	1704.16125	1138.75342	-1973.05835	1023.83386	3102.1687	-2012.49146	1022.03168	3140.75635
